<svg width="107" height="24" viewBox="0 0 107 24" fill="none" xmlns="http://www.w3.org/2000/svg">
<path d="M7.41619 7.71998L0.716227 14.4293C0.469343 14.677 0.313314 15.001 0.27347 15.3487L0.00651316 17.6959C-0.0108886 17.861 0.00667547 18.0279 0.0580584 18.1857C0.109441 18.3435 0.193488 18.4887 0.304708 18.6117C0.415928 18.7348 0.551822 18.833 0.703513 18.8999C0.855204 18.9668 1.01928 19.0009 1.18503 19H1.32176L3.66577 18.7327C4.01159 18.6926 4.33441 18.539 4.58385 18.2958L11.2838 11.58L7.41619 7.71998Z" fill="#9292D2"/>
<path d="M13.5497 7.15272L11.8503 5.45094C11.7081 5.30801 11.5392 5.1946 11.3531 5.11722C11.1671 5.03984 10.9676 5 10.7662 5C10.5647 5 10.3653 5.03984 10.1792 5.11722C9.99318 5.1946 9.82423 5.30801 9.68207 5.45094L8.10637 7.02884L11.974 10.9019L13.5497 9.32396C13.6924 9.1816 13.8057 9.01241 13.8829 8.82612C13.9602 8.63982 14 8.44007 14 8.23834C14 8.03661 13.9602 7.83686 13.8829 7.65057C13.8057 7.46427 13.6924 7.29508 13.5497 7.15272Z" fill="#9292D2"/>
<rect x="20" width="87" height="24" rx="12" fill="#555594"/>
<path d="M31.9 15.204C30.78 15.204 29.956 14.96 29.428 14.472C28.9 13.984 28.636 13.224 28.636 12.192V6.528H30.016V12.084C30.016 12.724 30.164 13.2 30.46 13.512C30.764 13.816 31.244 13.968 31.9 13.968C32.548 13.968 33.024 13.816 33.328 13.512C33.632 13.2 33.784 12.724 33.784 12.084V6.528H35.164V12.192C35.164 13.224 34.9 13.984 34.372 14.472C33.852 14.96 33.028 15.204 31.9 15.204ZM42.0927 10.428C42.3087 10.908 42.4167 11.452 42.4167 12.06C42.4167 12.356 42.3887 12.644 42.3327 12.924C42.2767 13.196 42.1967 13.448 42.0927 13.68C41.8847 14.144 41.5767 14.504 41.1687 14.76C40.7607 15.016 40.2687 15.144 39.6927 15.144C39.2847 15.144 38.9167 15.076 38.5887 14.94C38.2607 14.796 37.9847 14.588 37.7607 14.316V17.424H36.4287V9.12H37.7247V9.828C37.9487 9.54 38.2247 9.324 38.5527 9.18C38.8887 9.036 39.2687 8.964 39.6927 8.964C40.2687 8.964 40.7607 9.092 41.1687 9.348C41.5767 9.604 41.8847 9.964 42.0927 10.428ZM40.8087 13.176C40.9367 12.872 41.0007 12.5 41.0007 12.06C41.0007 11.612 40.9367 11.236 40.8087 10.932C40.6807 10.652 40.4927 10.444 40.2447 10.308C39.9967 10.164 39.7007 10.092 39.3567 10.092C38.8607 10.092 38.4687 10.252 38.1807 10.572C37.8927 10.884 37.7487 11.328 37.7487 11.904V12.204C37.7487 12.788 37.8927 13.24 38.1807 13.56C38.4687 13.872 38.8607 14.028 39.3567 14.028C39.7007 14.028 39.9967 13.956 40.2447 13.812C40.4927 13.668 40.6807 13.456 40.8087 13.176ZM43.3779 6.528H44.7099V15H43.3779V6.528ZM48.704 15.144C48.032 15.144 47.464 15.004 47 14.724C46.536 14.444 46.192 14.056 45.968 13.56C45.768 13.136 45.668 12.636 45.668 12.06C45.668 11.484 45.768 10.98 45.968 10.548C46.192 10.052 46.536 9.664 47 9.384C47.464 9.104 48.032 8.964 48.704 8.964C49.376 8.964 49.944 9.104 50.408 9.384C50.88 9.664 51.228 10.052 51.452 10.548C51.652 10.996 51.752 11.5 51.752 12.06C51.752 12.604 51.652 13.108 51.452 13.572C51.228 14.068 50.88 14.456 50.408 14.736C49.944 15.008 49.376 15.144 48.704 15.144ZM48.704 14.028C49.064 14.028 49.364 13.956 49.604 13.812C49.852 13.66 50.036 13.452 50.156 13.188C50.276 12.916 50.336 12.54 50.336 12.06C50.336 11.572 50.276 11.196 50.156 10.932C50.036 10.66 49.852 10.452 49.604 10.308C49.364 10.164 49.064 10.092 48.704 10.092C48.344 10.092 48.044 10.164 47.804 10.308C47.564 10.452 47.384 10.66 47.264 10.932C47.136 11.212 47.072 11.588 47.072 12.06C47.072 12.524 47.136 12.9 47.264 13.188C47.384 13.452 47.564 13.66 47.804 13.812C48.044 13.956 48.344 14.028 48.704 14.028ZM57.7818 10.152C57.9418 10.504 58.0218 10.972 58.0218 11.556V15H56.6898V14.34C56.2658 14.876 55.5938 15.144 54.6738 15.144C54.1538 15.144 53.7138 15.06 53.3538 14.892C52.9938 14.724 52.7418 14.476 52.5978 14.148C52.4938 13.916 52.4418 13.652 52.4418 13.356C52.4418 13.06 52.4898 12.804 52.5858 12.588C52.7858 12.148 53.1258 11.848 53.6058 11.688C54.0858 11.52 54.7058 11.436 55.4658 11.436H56.6898V11.28C56.6898 11.128 56.6818 11.004 56.6658 10.908C56.6498 10.804 56.6178 10.7 56.5698 10.596C56.3938 10.212 55.9858 10.02 55.3458 10.02C55.0178 10.02 54.7498 10.064 54.5418 10.152C54.3338 10.24 54.1858 10.38 54.0978 10.572C54.0418 10.716 54.0138 10.848 54.0138 10.968H52.6698C52.6698 10.632 52.7258 10.348 52.8378 10.116C53.1818 9.348 54.0138 8.964 55.3338 8.964C55.9818 8.964 56.5058 9.06 56.9058 9.252C57.3138 9.444 57.6058 9.744 57.7818 10.152ZM56.5458 13.284C56.6418 13.052 56.6898 12.78 56.6898 12.468V12.396H55.5498C55.1098 12.396 54.7458 12.432 54.4578 12.504C54.1698 12.576 53.9818 12.708 53.8938 12.9C53.8458 12.996 53.8218 13.108 53.8218 13.236C53.8218 13.364 53.8458 13.484 53.8938 13.596C53.9738 13.764 54.1138 13.888 54.3138 13.968C54.5138 14.048 54.7498 14.088 55.0218 14.088C55.4058 14.088 55.7258 14.02 55.9818 13.884C56.2378 13.748 56.4258 13.548 56.5458 13.284ZM64.9097 6.528V15H63.6137V14.292C63.3897 14.572 63.1097 14.784 62.7737 14.928C62.4457 15.072 62.0737 15.144 61.6577 15.144C61.0817 15.144 60.5897 15.016 60.1817 14.76C59.7737 14.504 59.4657 14.144 59.2577 13.68C59.1537 13.448 59.0737 13.196 59.0177 12.924C58.9617 12.644 58.9337 12.356 58.9337 12.06C58.9337 11.452 59.0417 10.908 59.2577 10.428C59.4657 9.964 59.7737 9.604 60.1817 9.348C60.5897 9.092 61.0817 8.964 61.6577 8.964C62.0657 8.964 62.4337 9.036 62.7617 9.18C63.0897 9.316 63.3657 9.52 63.5897 9.792V6.528H64.9097ZM63.5897 11.904C63.5897 11.32 63.4457 10.872 63.1577 10.56C62.8777 10.248 62.4897 10.092 61.9937 10.092C61.6497 10.092 61.3537 10.164 61.1057 10.308C60.8577 10.444 60.6697 10.652 60.5417 10.932C60.4137 11.236 60.3497 11.612 60.3497 12.06C60.3497 12.5 60.4137 12.872 60.5417 13.176C60.6697 13.456 60.8577 13.668 61.1057 13.812C61.3537 13.956 61.6497 14.028 61.9937 14.028C62.4897 14.028 62.8777 13.872 63.1577 13.56C63.4457 13.24 63.5897 12.788 63.5897 12.204V11.904ZM68.4351 6.528H71.6271C72.2831 6.528 72.8271 6.632 73.2591 6.84C73.6911 7.04 73.9991 7.352 74.1831 7.776C74.3351 8.104 74.4111 8.508 74.4111 8.988C74.4111 9.236 74.3911 9.456 74.3511 9.648C74.3191 9.84 74.2631 10.024 74.1831 10.2C73.9991 10.616 73.6871 10.928 73.2471 11.136C72.8151 11.344 72.2751 11.448 71.6271 11.448H69.8151V15H68.4351V6.528ZM71.2791 10.284C71.7191 10.284 72.0671 10.236 72.3231 10.14C72.5871 10.044 72.7711 9.876 72.8751 9.636C72.9551 9.468 72.9951 9.252 72.9951 8.988C72.9951 8.732 72.9551 8.512 72.8751 8.328C72.7631 8.096 72.5791 7.932 72.3231 7.836C72.0671 7.74 71.7191 7.692 71.2791 7.692H69.8151V10.284H71.2791ZM78.4443 8.964C79.1643 8.964 79.7203 9.168 80.1123 9.576C80.5043 9.984 80.7003 10.58 80.7003 11.364V15H79.3803V11.628C79.3803 11.1 79.2723 10.712 79.0563 10.464C78.8403 10.216 78.5083 10.092 78.0603 10.092C77.5883 10.092 77.2283 10.228 76.9803 10.5C76.7323 10.764 76.6083 11.16 76.6083 11.688V15H75.2763V6.528H76.6083V9.78C77.0163 9.236 77.6283 8.964 78.4443 8.964ZM84.6454 15.144C83.9734 15.144 83.4054 15.004 82.9414 14.724C82.4774 14.444 82.1334 14.056 81.9094 13.56C81.7094 13.136 81.6094 12.636 81.6094 12.06C81.6094 11.484 81.7094 10.98 81.9094 10.548C82.1334 10.052 82.4774 9.664 82.9414 9.384C83.4054 9.104 83.9734 8.964 84.6454 8.964C85.3174 8.964 85.8854 9.104 86.3494 9.384C86.8214 9.664 87.1694 10.052 87.3934 10.548C87.5934 10.996 87.6934 11.5 87.6934 12.06C87.6934 12.604 87.5934 13.108 87.3934 13.572C87.1694 14.068 86.8214 14.456 86.3494 14.736C85.8854 15.008 85.3174 15.144 84.6454 15.144ZM84.6454 14.028C85.0054 14.028 85.3054 13.956 85.5454 13.812C85.7934 13.66 85.9774 13.452 86.0974 13.188C86.2174 12.916 86.2774 12.54 86.2774 12.06C86.2774 11.572 86.2174 11.196 86.0974 10.932C85.9774 10.66 85.7934 10.452 85.5454 10.308C85.3054 10.164 85.0054 10.092 84.6454 10.092C84.2854 10.092 83.9854 10.164 83.7454 10.308C83.5054 10.452 83.3254 10.66 83.2054 10.932C83.0774 11.212 83.0134 11.588 83.0134 12.06C83.0134 12.524 83.0774 12.9 83.2054 13.188C83.3254 13.452 83.5054 13.66 83.7454 13.812C83.9854 13.956 84.2854 14.028 84.6454 14.028ZM90.8343 15.096C90.1943 15.096 89.7263 14.948 89.4303 14.652C89.1423 14.348 88.9983 13.86 88.9983 13.188V10.212H88.0863V9.12H88.9983V7.704H90.3183V9.12H91.9863V10.212H90.3183V12.948C90.3183 13.3 90.3903 13.56 90.5343 13.728C90.6863 13.888 90.9183 13.968 91.2303 13.968C91.4863 13.968 91.7223 13.936 91.9383 13.872V14.976C91.5623 15.056 91.1943 15.096 90.8343 15.096ZM95.4736 15.144C94.8016 15.144 94.2336 15.004 93.7696 14.724C93.3056 14.444 92.9616 14.056 92.7376 13.56C92.5376 13.136 92.4376 12.636 92.4376 12.06C92.4376 11.484 92.5376 10.98 92.7376 10.548C92.9616 10.052 93.3056 9.664 93.7696 9.384C94.2336 9.104 94.8016 8.964 95.4736 8.964C96.1456 8.964 96.7136 9.104 97.1776 9.384C97.6496 9.664 97.9976 10.052 98.2216 10.548C98.4216 10.996 98.5216 11.5 98.5216 12.06C98.5216 12.604 98.4216 13.108 98.2216 13.572C97.9976 14.068 97.6496 14.456 97.1776 14.736C96.7136 15.008 96.1456 15.144 95.4736 15.144ZM95.4736 14.028C95.8336 14.028 96.1336 13.956 96.3736 13.812C96.6216 13.66 96.8056 13.452 96.9256 13.188C97.0456 12.916 97.1056 12.54 97.1056 12.06C97.1056 11.572 97.0456 11.196 96.9256 10.932C96.8056 10.66 96.6216 10.452 96.3736 10.308C96.1336 10.164 95.8336 10.092 95.4736 10.092C95.1136 10.092 94.8136 10.164 94.5736 10.308C94.3336 10.452 94.1536 10.66 94.0336 10.932C93.9056 11.212 93.8416 11.588 93.8416 12.06C93.8416 12.524 93.9056 12.9 94.0336 13.188C94.1536 13.452 94.3336 13.66 94.5736 13.812C94.8136 13.956 95.1136 14.028 95.4736 14.028Z" fill="#C8C8E1"/>
</svg>
